# xmcd
#
# Track frame offsets: 
#        150
#        10947
#        18989
#        32605
#        66231
#        93996
#        102373
#        144858
#        155739
#        191124
#        202105
#        215387
#        224634
#        238033
#        255082
#        271615
#        282829
#        298069
#        320576
#
# Disc length: 4812 seconds
#
# Revision: 0
# Processed by: cddbd v1.5.2PL0 Copyright (c) Steve Scherf et al.
# Submitted via: ExactAudioCopyFreeDBPlugin 1.0
#
DISCID=1a12ca13
DTITLE=小澤征爾  - CD5 小澤征爾の80曲 ベルリン・フィル＆ウィーン・フィル その他のオーケストラ編
DYEAR=2016
DGENRE=Classical
TTITLE0=サー・ゲオルグ・ショルティ ベルリン・フィルハーモニー管弦楽団 - オルフ 《カルミナ･ブラーナ》～おお、フォルトゥナ 晋友
TTITLE0=会合唱団 1988年6月 ベルリン 
TTITLE1=ベルリン・フィルハーモニー管弦楽 - プロコフィエフ 交響曲 第1番 ニ長調 作品25 《古典》～第3楽章：ガヴォット 19
TTITLE1=89年4月 ベルリン
TTITLE2=ベルリン・フィルハーモニー管弦楽 - プロコフィエフ 組曲 《キージェ中尉》 作品60～第4曲：トロイカ 1990年11月 
TTITLE2=ベルリン
TTITLE3=ベルリン・フィルハーモニー管弦楽 - ワーグナー 楽劇《トリスタンとイゾルデ》～愛の死 1989年6月 ベルリン
TTITLE4=ベルリン・フィルハーモニー管弦楽 - チャイコフスキー 交響曲 第5番 ホ短調 作品64～第3楽章：ワルツ 1989年4月 
TTITLE4=ベルリン
TTITLE5=ベルリン・フィルハーモニー管弦楽 - オルフ 《カルミナ･ブラーナ》～踊らんかな 1988年6月 ベルリン
TTITLE6=ウィーン・フィルハーモニー管弦楽団 - R.コルサコフ 交響組曲 《シェエラザード》～第3楽章：若い王子と王女 1993年4
TTITLE6=月 ウィーン
TTITLE7=ウィーン・フィルハーモニー管弦楽団 - R.シュトラウス ウィーン･フィルハーモニーのためのファンファーレ 1996年3月 
TTITLE7=ウィーン
TTITLE8=ウィーン・フィルハーモニー管弦楽団 - ドヴォルザーク 交響曲 第9番 ホ短調 作品95《新世界より》～第3楽章：スケルツォ
TTITLE8=1991年5月 ウィーン 
TTITLE9=ウィーン・フィルハーモニー管弦楽団 - J.シュトラウスI世 アンネン･ポルカ 作品137 2002年1月 ウィーン
TTITLE10=ウィーン・フィルハーモニー管弦楽団 - J.シュトラウスII世 常動曲 作品257 2002年1月 ウィーン
TTITLE11=ウィーン・フィルハーモニー管弦楽団 - ヨーゼフ･シュトラウス ポルカ・シュネル《大急ぎで》 作品230 2002年1月 
TTITLE11=ウィーン
TTITLE12=ウィーン・フィルハーモニー管弦楽団 - ヨーゼフ･シュトラウス ポルカ・シュネル《おしゃべりな可愛いお口》 作品245 2
TTITLE12=002年1月 ウィーン 
TTITLE13=ウィーン・フィルハーモニー管弦楽団 - J.シュトラウスI世 ラデツキー行進曲 作品228 2002年1月 ウィーン
TTITLE14=サンフランシスコ交響楽団 - バーンスタイン 《ウェスト･サイド・ストーリー》～サムウエア 1972年6月 カリフォルニア
TTITLE14=、カパティーノ 
TTITLE15=サンフランシスコ交響楽団 - バーンスタイン 《ウェスト･サイド・ストーリー》～マンボ 1972年6月 カリフォルニア、カ
TTITLE15=パティーノ 
TTITLE16=フランス国立管弦楽団 - ビゼー 歌劇《カルメン》～第1幕への前奏曲 1988年7月 パリ 
TTITLE17=フランス国立管弦楽団 - ビゼー 歌劇《カルメン》～この乾杯のお返しをさせて下さい（闘牛士の歌）フランス放送合唱団 198
TTITLE17=8年7月 パリ 
TTITLE18=シュターツカペレ・ドレスデン - R. シュトラウス 楽劇《サロメ》～サロメの踊り 1990年11月 ドレスデン
EXTD=
EXTT0=
EXTT1=
EXTT2=
EXTT3=
EXTT4=
EXTT5=
EXTT6=
EXTT7=
EXTT8=
EXTT9=
EXTT10=
EXTT11=
EXTT12=
EXTT13=
EXTT14=
EXTT15=
EXTT16=
EXTT17=
EXTT18=
PLAYORDER=
